{"title":"Leap Year (2010) Amy Adams (DVDrip, optional MULTISUBS)","uid":5727363,"size":737962577,"categoryP":"video","categoryS":"movies","magnet":"?xt=urn:btih:37e31640e44377df03a04223dc2d22c0a63f1289&amp;dn=Leap+Year+%282010%29+Amy+Adams+%28DVDrip%2C+optional+MULTISUBS%29&amp;tr=udp%3A%2F%2Ftracker.openbittorrent.com%3A80&amp;tr=udp%3A%2F%2Fopen.demonii.com%3A1337&amp;tr=udp%3A%2F%2Ftracker.coppersurfer.tk%3A6969&amp;tr=udp%3A%2F%2Fexodus.desync.com%3A6969","seeders":2,"leechers":0,"uploader":"Kuthumi","files":14,"time":1280506125,"description":" &lt;a href=&quot;http://www.imdb.com/title/tt1216492/&quot; rel=&quot;nofollow&quot; target=&quot;_NEW&quot;&gt;http://www.imdb.com/title/tt1216492/&lt;/a&gt;\n\nOptional subtitles in separate idx/sub files (Work in Windows Media Player etc., \nsee enclosed Note): Bulgarian, Czech, Danish, Dutch, English for the hearing impaired, Finnish, Italian, Norwegian, Romanian, Spanish, Swedish.\n\nCharming cultural collision between a spoiled American girl and the rough Irish culture.\n\nWidescreen DVDrip XviD 720x288, great stereo sound AC3.\nRuns well in both my standalone DivX players.\n\nMediaInfo analysis:\n\nFormat/Info                      : Audio Video Interleave\nFile size                        : 696 MiB\nDuration                         : 1h 36mn\nOverall bit rate                 : 1 012 Kbps\n\nVideo\nID                               : 0\nFormat                           : MPEG-4 Visual\nFormat profile                   : Advanced Simple@L5\nFormat settings, BVOP            : Yes\nFormat settings, QPel            : No\nFormat settings, GMC             : No warppoints\nFormat settings, Matrix          : Default (H.263)\nMuxing mode                      : Packed bitstream\nCodec ID                         : XVID\nCodec ID/Hint                    : XviD\nDuration                         : 1h 36mn\nBit rate                         : 875 Kbps\nWidth                            : 720 pixels\nHeight                           : 288 pixels\nDisplay aspect ratio             : 2.500\nFrame rate                       : 25.000 fps\nColor space                      : YUV\nChroma subsampling               : 4:2:0\nBit depth                        : 8 bits\nScan type                        : Progressive\nBits/(Pixel*Frame)               : 0.169\nStream size                      : 601 MiB (86%)\nWriting library                  : XviD 1.2.1 (UTC 2008-12-04)\n\nAudio\nID                               : 1\nFormat                           : MPEG Audio\nFormat version                   : Version 1\nFormat profile                   : Layer 3\nMode                             : Joint stereo\nMode extension                   : MS Stereo\nCodec ID                         : 55\nCodec ID/Hint                    : MP3\nDuration                         : 1h 36mn\nBit rate mode                    : Constant\nBit rate                         : 128 Kbps\nChannel(s)                       : 2 channels\nSampling rate                    : 48.0 KHz\nStream size                      : 88.0 MiB (13%)\nAlignment                        : Aligned on interleaves\nInterleave, duration             : 40 ms (1.00 video frame)\nInterleave, preload duration     : 504 ms\nWriting library                  : LAME3.97 \nEncoding settings                : -m j -V 4 -q 2 -lowpass 17 -b 128\n\nSource: PAL retail (note that PAL/NTSC will give no problems for avi files).\nWith thanks to the uploader of the DVD.","torrent":{"xt":"urn:btih:37e31640e44377df03a04223dc2d22c0a63f1289","amp;dn":"Leap+Year+%282010%29+Amy+Adams+%28DVDrip%2C+optional+MULTISUBS%29","amp;tr":["udp%3A%2F%2Ftracker.openbittorrent.com%3A80","udp%3A%2F%2Fopen.demonii.com%3A1337","udp%3A%2F%2Ftracker.coppersurfer.tk%3A6969","udp%3A%2F%2Fexodus.desync.com%3A6969"],"infoHash":"37e31640e44377df03a04223dc2d22c0a63f1289","infoHashBuffer":{"type":"Buffer","data":[55,227,22,64,228,67,119,223,3,160,66,35,220,45,34,192,166,63,18,137]},"announce":[],"urlList":[]}}